<svg xmlns="http://www.w3.org/2000/svg" viewBox="0 0 178 51">
  <defs>
    <style>.a,.b{fill:#fff}.b{fill-rule:evenodd}</style>
  </defs>
  <title>The University of Queensland, Australia</title>
  <desc>White horizontal logo of The University of Queensland. https://www.uq.edu.au</desc>
  <path class="a"
        d="M39.3 36.44v.77l.62-.48a.84.84 0 0 0 .36-.68c0-.32-.17-.25-.37-.1l-.63.48zm-.35-.13s.21-.19.36-.29l.66-.5c.47-.36.71-.29.71.13a1.46 1.46 0 0 1-.35.9c.13-.07.32-.1.32.29a.82.82 0 0 0 .11.57l-.4.31a.57.57 0 0 1-.06-.33c0-.46-.08-.6-.43-.34l-.55.42v1l-.38.29v-2.48zM35.01 40.19v.79l.67-.38a.72.72 0 0 0 .39-.62c0-.25-.15-.32-.39-.18l-.69.4zm0-1v.71l.64-.37a.65.65 0 0 0 .34-.55c0-.27-.13-.29-.34-.17l-.66.37zm.05 2.21l-.46.24v-2.6a4.17 4.17 0 0 1 .38-.22l.75-.42c.42-.23.69-.18.69.26a1.08 1.08 0 0 1-.33.74c.29-.08.44.08.44.43a1.45 1.45 0 0 1-.86 1.21l-.6.36zM33.46 41.15l-.42-.93-.33 1.28.76-.35zm-.86.76l-.2.78-.47.22.85-3 .43-.2 1.09 2.13-.43.2-.26-.58-1 .46zM21.39 48.28l-.41-1.16-.41 1.1.82.06zm-1 .33l-.25.69h-.49l1-2.58h.51l1 2.72h-.5l-.24-.72-1.09-.08zM14.49 42.68l-.36-1.24-.37 1 .73.29zm-.85 0l-.23.6-.46-.17 1-2.23.43.16.92 2.83-.45-.12-.2-.67-1-.39z"/>
  <path class="a"
        d="M15.19 45.43v3.28a20.54 20.54 0 0 0 13.75 0v-3.27a26.21 26.21 0 0 1-6.87.91 29.14 29.14 0 0 1-6.87-.91zM1.08 31.85v4.22c4 3.34 8.46 6.63 14 8.2l3.67-2.25c-5.73-1.2-13.7-5.24-17.69-10.17zm5.84 3.61c-.43-.71-.85-1.37-1.48-2.39v1.41c.49.38 1.48 1 1.48 1zm28.24 1.4zm2-1.29c.89-.6 1.57-1.09 1.57-1.09l-.09-1.41-1.51 2.5zm5.89-3.74c-4 4.94-12 9-17.7 10.18l3.66 2.25a39.12 39.12 0 0 0 7.77-3.52c4.77-3 6.27-4.83 6.27-4.83v-4.08zm-37.63 9v.59c0 .81-.1.77.59 1.23l2.69 1.78v-1.62c-1.15-.62-2.24-1.28-3.27-2zm34.34-.74v1.45c0 1.11-.1 1.33-.7 1.74-1 .65-2.45 1.7-4.74 3.08v-3a31.22 31.22 0 0 1-4.3 1.74v4.39a21.68 21.68 0 0 1-15.93 0v-4.4a31.15 31.15 0 0 1-4.3-1.74v3c-2.3-1.38-3.79-2.43-4.74-3.08-.6-.42-.7-.64-.7-1.74v-1.45a51.07 51.07 0 0 1-4.36-3.51v-6.38H4.9c2 3.19 3.45 5.47 4.22 6.75a37.1 37.1 0 0 0 8.49 3.67c.86.24 1.71.44 2.54.59v4h3.82v-4c.82-.15 1.67-.35 2.53-.59a37.69 37.69 0 0 0 8.56-3.67s2.2-3.61 4.15-6.75h4.91v6.38a51.52 51.52 0 0 1-4.36 3.52zm-1.66 2.57c.69-.46.58-.42.58-1.23v-.59c-1 .69-2.13 1.36-3.27 2v1.62l2.7-1.78z"/>
  <path class="a"
        d="M6.07 1.12V20.8c0 7.6 6.71 15.35 16.07 18.22 9.34-2.87 16-10.62 16-18.22V1.12H6.07zm16.07 39C12.78 37.56 4.97 29.34 4.97 20.75V0H39.3v20.78c0 8.59-7.81 16.81-17.17 19.37zM12.34 42.85l.44.18v-2.56l-.44-.2v2.58z"/>
  <path class="b" d="M10.15 39.63l.68.33v2.21l.43.21v-2.17l.71.3v-.39l-1.82-.89v.4z"/>
  <path class="a" d="M7.97 40.61l.4.24v-1.91h.01l.97 2.49.4.23v-2.63l-.36-.2v1.94l-.01-.01-.97-2.49-.44-.26v2.6z"/>
  <path class="b" d="M6.01 39.37l1.54 1.01v-.4l-1.17-.76v-.77l1.06.7v-.37l-1.06-.7v-.68l1.15.76v-.39l-1.52-1v2.6z"/>
  <path class="a"
        d="M5.25 38.82l.4.27v-2.56l-.4-.26v2.55zM4.87 36.7a1.85 1.85 0 0 0-.8-1.39c-.56-.36-.9 0-.9.79a2.37 2.37 0 0 0 .9 1.93c.46.29.78.07.8-.55l-.32-.2c0 .36-.19.57-.48.38a1.63 1.63 0 0 1-.57-1.35c0-.5.17-.88.57-.63a1.1 1.1 0 0 1 .47.81l.33.21zM1.5 35.03a1.81 1.81 0 0 0 .74 1.45c.35.25.7.27.7-.31a1.43 1.43 0 0 0-.3-.89c-.09-.11-.48-.53-.5-.57a.74.74 0 0 1-.21-.49c0-.26.18-.21.32-.1a.87.87 0 0 1 .38.73l.31.21a1.67 1.67 0 0 0-.67-1.31c-.32-.23-.64-.21-.64.31a1.39 1.39 0 0 0 .39.93c.24.27.41.44.53.59a.67.67 0 0 1 .15.42c0 .2-.1.33-.38.13a1.05 1.05 0 0 1-.45-.87l-.31-.22zM24.77 47.53a1 1 0 0 0-1.16-.84 1.35 1.35 0 0 0-1.26 1.46 1.22 1.22 0 0 0 1.3 1.31 1.16 1.16 0 0 0 1.13-1.14h-.46a.73.73 0 0 1-.68.74.83.83 0 0 1-.83-1A.92.92 0 0 1 23.6 47a.61.61 0 0 1 .68.49h.47z"/>
  <path class="b"
        d="M41.04 37.2l1.35-1.23v-.38l-1.02.93v-.73l.93-.85v-.36l-.93.86v-.66l1-.93v-.37l-1.33 1.22v2.5zM29.86 43.69l1.79-.67v-.4l-1.33.49v-2.2l-.46.19v2.59zM38.29 37.9c-.08-.42-.34-.66-.77-.25a1.56 1.56 0 0 0-.45 1.4c.08.42.32.64.76.26a1.49 1.49 0 0 0 .46-1.41zm-1.57 1.48a2.39 2.39 0 0 1 .74-2c.6-.57 1.06-.39 1.18.23a2.29 2.29 0 0 1-.74 2c-.59.52-1.06.39-1.18-.23zM12.24 24.46a10.52 10.52 0 0 0-2.37 4.17v-4.17h2.37zm14.75 0c.92 2.71 2.68 4.51 6 5.63H11.3c3.3-1.12 5.07-2.92 6-5.63h9.71zm7.39 0v4.17a10.28 10.28 0 0 0-2.37-4.17h2.37zM9.87 24.46v-18c1.43 4.31 3.9 6.08 8 6.73-.64-4.2-2.35-6.73-6.58-8.2h21.66c-4.21 1.46-5.92 4-6.56 8.2 4.11-.65 6.58-2.43 8-6.73v18h-2.37a9.62 9.62 0 0 0-5.62-2.54 14.93 14.93 0 0 0 .59 2.54h-9.71a15 15 0 0 0 .6-2.54 9.52 9.52 0 0 0-5.64 2.54H9.87zm18.48-9.42h2.29c.59 0 1 .1 1 .6a.69.69 0 0 1-.84.76h-2.38v-1.36zM15.89 16.4h-1.71a.8.8 0 0 1-.69.39.78.78 0 0 1-.79-.78v-.08h-.13a.24.24 0 0 1-.26-.26.24.24 0 0 1 .26-.23h.13v-.08a.8.8 0 0 1 .79-.78.75.75 0 0 1 .69.5h1.73v1.36zm-2.13-.47h-.55a.29.29 0 0 0 .27.31.29.29 0 0 0 .28-.31zm-.55-.5h.55a.3.3 0 0 0-.28-.33.29.29 0 0 0-.27.31zm15.15 3.29h2.28c.59 0 1 .1 1 .6a.69.69 0 0 1-.84.76h-2.38v-1.36zM15.9 20.08h-1.71a.8.8 0 0 1-.69.39.78.78 0 0 1-.79-.78v-.08h-.13a.24.24 0 0 1-.26-.26.24.24 0 0 1 .26-.23h.13v-.08a.8.8 0 0 1 .79-.78.75.75 0 0 1 .69.5h1.73v1.36zm-2.13-.47h-.55a.29.29 0 0 0 .27.31.29.29 0 0 0 .28-.31zm-.55-.5h.55a.3.3 0 0 0-.28-.32.29.29 0 0 0-.27.31zm8.52 1a2.84 2.84 0 0 0-1.68-.34h-1.79v-5.64c.89 0 .89-.23 1.91-.23a1.42 1.42 0 0 1 1.56 1.31v4.91zm.82 0a2.8 2.8 0 0 1 1.68-.34h1.79v-5.64c-.89 0-.89-.23-1.91-.23a1.42 1.42 0 0 0-1.56 1.31v4.91zm-.41 1.49c1.15 0 1-.44 1.84-.44h3.32v-6.71l-.46-.31v6.47h-2.58c-1.48 0-1.1.44-2.12.44s-.64-.44-2.12-.44h-2.58v-6.47l-.46.31v6.71h3.32c.77 0 .66.44 1.84.44zM54.02 45.91l-.82 2h1.66l-.83-2zm-2.72 4.08a.65.65 0 0 0 .5-.23 6.84 6.84 0 0 0 .54-1.13l1.76-4.23h.27l2.1 4.88a2.11 2.11 0 0 0 .31.57.89.89 0 0 0 .45.14v.29h-2.29v-.3a1.77 1.77 0 0 0 .52-.08.15.15 0 0 0 .05-.16 1.93 1.93 0 0 0-.15-.52l-.32-.77h-2.06q-.31.78-.37 1a.9.9 0 0 0-.06.26.22.22 0 0 0 .12.22 1.69 1.69 0 0 0 .45.07v.28H51.3v-.32z"/>
  <path class="a"
        d="M63.17 44.82a1.35 1.35 0 0 0-.65.15.79.79 0 0 0-.11.53v2.72a2.38 2.38 0 0 0 .17 1 1.19 1.19 0 0 0 1.19.63c1.25 0 1.48-.75 1.48-1.82v-2.22a1.42 1.42 0 0 0-.14-.81 1.07 1.07 0 0 0-.64-.21v-.32h2.1v.32a1.08 1.08 0 0 0-.65.22 1.53 1.53 0 0 0-.13.8v2.22a3 3 0 0 1-.27 1.42 2.42 2.42 0 0 1-3.84 0 2.73 2.73 0 0 1-.28-1.32v-2.66a.78.78 0 0 0-.11-.53 1.33 1.33 0 0 0-.64-.15v-.33h2.53v.33zM71.05 49.36a1.46 1.46 0 0 0 1.17.56.91.91 0 0 0 .63-.24.82.82 0 0 0 .26-.65.93.93 0 0 0-.27-.66 11.8 11.8 0 0 0-1.5-1 2.63 2.63 0 0 1-.53-.44 1.41 1.41 0 0 1-.38-.95 1.53 1.53 0 0 1 1.61-1.59 2.13 2.13 0 0 1 .71.15l.43.14a.18.18 0 0 0 .14 0 .59.59 0 0 0 .09-.24h.31l.2 2h-.36a2 2 0 0 0-.64-1.16 1.42 1.42 0 0 0-.84-.31.7.7 0 0 0-.76.69.76.76 0 0 0 .17.5 2.44 2.44 0 0 0 .59.48l.73.46a3.89 3.89 0 0 1 1 .81 1.49 1.49 0 0 1 .29.92 1.54 1.54 0 0 1-.52 1.18 1.88 1.88 0 0 1-1.32.47 2.5 2.5 0 0 1-.84-.15 3.55 3.55 0 0 0-.45-.14.13.13 0 0 0-.12 0 .7.7 0 0 0-.07.24h-.33l-.27-2h.35a3.14 3.14 0 0 0 .5.95zM82.86 44.49l.05 1.62h-.36a2 2 0 0 0-.36-.91 1.42 1.42 0 0 0-.89-.19h-.38v4.27a.77.77 0 0 0 .12.55 1.74 1.74 0 0 0 .69.14v.31h-2.6v-.3c.69-.05.79-.06.79-.79v-4.17h-.38a1.5 1.5 0 0 0-.89.18 1.74 1.74 0 0 0-.36.91h-.35l.05-1.62h4.87z"/>
  <path class="b"
        d="M89.85 46.06a.92.92 0 0 0-.54-.93 2 2 0 0 0-.81-.14 1 1 0 0 0-.39 0 .22.22 0 0 0 0 .17v2a3.82 3.82 0 0 0 1.17-.18 1 1 0 0 0 .61-1zm-2.89 3.75a1.2 1.2 0 0 0 .1-.62V45.5a.82.82 0 0 0-.11-.53 1.16 1.16 0 0 0-.61-.16v-.33h2.39a3.41 3.41 0 0 1 1.23.19 1.38 1.38 0 0 1 1 1.38 1.29 1.29 0 0 1-.44 1 2.16 2.16 0 0 1-1 .44l1.62 2a.88.88 0 0 0 .74.38v.41h-1.47l-2-2.62h-.34v1.62a.82.82 0 0 0 .11.54 1.46 1.46 0 0 0 .64.15v.31h-2.48v-.3a1.19 1.19 0 0 0 .62-.17zM97.64 45.91l-.82 2h1.66l-.83-2zm-2.72 4.08a.65.65 0 0 0 .5-.23 6.85 6.85 0 0 0 .54-1.13l1.76-4.23h.27l2.1 4.88a2.11 2.11 0 0 0 .31.57.89.89 0 0 0 .45.14v.29h-2.29v-.3a1.77 1.77 0 0 0 .52-.08.15.15 0 0 0 .05-.16 1.93 1.93 0 0 0-.15-.52l-.32-.77h-2.02q-.31.78-.37 1a.9.9 0 0 0-.06.26.22.22 0 0 0 .12.22 1.69 1.69 0 0 0 .45.07v.28h-1.82v-.32z"/>
  <path class="a"
        d="M104.86 49.83a.81.81 0 0 0 .11-.54V45.5a.83.83 0 0 0-.11-.53 1.19 1.19 0 0 0-.62-.15v-.33h2.52v.33a1.36 1.36 0 0 0-.65.14.65.65 0 0 0-.12.49v4.09a.38.38 0 0 0 0 .18.19.19 0 0 0 .14.06H106.71a3.92 3.92 0 0 0 1.46-.18 2.09 2.09 0 0 0 .74-1h.38l-.43 1.68h-4.63v-.32a1.51 1.51 0 0 0 .62-.15zM113.38 49.84a.78.78 0 0 0 .12-.55V45.5a.77.77 0 0 0-.12-.54 1.42 1.42 0 0 0-.69-.14v-.33h2.63v.33a1.42 1.42 0 0 0-.69.14.77.77 0 0 0-.12.54v3.78a.77.77 0 0 0 .12.55 1.74 1.74 0 0 0 .69.14v.31h-2.68v-.3a1.74 1.74 0 0 0 .69-.14z"/>
  <path class="b"
        d="M121.5 45.91l-.82 2h1.66l-.83-2zm-2.72 4.08a.65.65 0 0 0 .5-.23 6.84 6.84 0 0 0 .54-1.13l1.76-4.23h.27l2.1 4.88a2.12 2.12 0 0 0 .31.57.89.89 0 0 0 .45.14v.29h-2.29v-.3a1.77 1.77 0 0 0 .52-.08.15.15 0 0 0 .05-.16 1.93 1.93 0 0 0-.15-.52l-.32-.77h-2.06q-.31.78-.37 1a.9.9 0 0 0-.06.26.22.22 0 0 0 .12.22 1.69 1.69 0 0 0 .45.07v.28h-1.82v-.32zM138.95 5.4v4.19h.87a2.25 2.25 0 0 0 2.26-2.22 2.18 2.18 0 0 0-2.26-2.13 1.71 1.71 0 0 0-.87.17zm4.91 2a3 3 0 0 1-2.35 2.67l3 4a1.6 1.6 0 0 0 1 .78h.13v.29h-2.35l-3.65-4.86h-.67v3.49a.92.92 0 0 0 1 1.11h.07v.29h-3.8v-.29h.11a.91.91 0 0 0 .93-1.11v-7.8a.92.92 0 0 0-.93-1.11h-.11v-.29h2.72c4-.22 4.89 1.14 4.91 2.82z"/>
  <path class="a"
        d="M57.14 15.1v-.38h-.59a1.24 1.24 0 0 1-1.15-1.27V2.79h2.41c1 0 1.61.76 1.67 2.25h.33l-.13-3.2a.16.16 0 0 0-.09-.11H49.01a.24.24 0 0 0-.09.11l-.13 3.2h.35c.07-1.49.67-2.25 1.67-2.25h2.41v10.67a1.24 1.24 0 0 1-1.17 1.27h-.61v.38h5.69zM97 3.03a.82.82 0 0 0-.87-.93h-.49v-.4h3.76v.4h-.43a.81.81 0 0 0-.89.93v7.78c0 2.51-1.89 4.45-5 4.45s-5.15-2-5.15-4.67V3.34a1.22 1.22 0 0 0-1.17-1.25h-.15v-.4h4.82v.4h-.19a1.24 1.24 0 0 0-1.17 1.25v7.31a3.23 3.23 0 0 0 3.19 3.54A3.45 3.45 0 0 0 97 10.81V3.03zM67.91 10.06h-4.43v3.65a.91.91 0 0 0 .93 1.11h.07v.29h-3.72v-.29h.07a.89.89 0 0 0 .93-1.11v-7.8a.89.89 0 0 0-.93-1.11h-.07v-.29h3.72v.29h-.07a.92.92 0 0 0-.93 1.11v3.37h4.43v-3.4a.93.93 0 0 0-1-1.11h-.07v-.29h3.8v.29h-.11a.91.91 0 0 0-.93 1.11v7.8a.9.9 0 0 0 .93 1.11h.11v.29h-3.76v-.29h.07a.92.92 0 0 0 1-1.11v-3.65zM74.56 9.88v3.91a.52.52 0 0 0 .52.53h2.61a2.4 2.4 0 0 0 2.43-2.07h.3l-.87 2.85h-7.71v-.29h.07a.92.92 0 0 0 1-1.11V5.9a.93.93 0 0 0-1-1.11h-.07V4.5h7.47l.17 2.42h-.26a1.55 1.55 0 0 0-1.46-1.71h-3.22v3.87h3a.9.9 0 0 0 .74-1v-.07h.36v2.93h-.3v-.06a.87.87 0 0 0-.74-1h-3zM114.18 13.7a.92.92 0 0 0 1 1.11v.29h-3.69v-.29a.93.93 0 0 0 1-1.11V5.9a.94.94 0 0 0-1-1.11V4.5h3.69v.29a.93.93 0 0 0-1 1.11v7.8zM121.64 15.04l3.59-9.32a1.21 1.21 0 0 1 1-.93V4.5h-2.39v.29h.15a.54.54 0 0 1 .5.71l-2.56 6.54-2.8-6.54a.53.53 0 0 1 .46-.71h.35V4.5h-3.52v.29a1.15 1.15 0 0 1 1 .89l4 9.36a.22.22 0 0 0 .37 0zM130.04 9.88v3.91a.52.52 0 0 0 .52.53h2.61a2.44 2.44 0 0 0 2.47-2.04h.3l-.89 2.85h-7.69v-.29h.07a.9.9 0 0 0 .93-1.11v-7.8a.91.91 0 0 0-.93-1.11h-.07v-.29h7.45l.2 2.42h-.26a1.56 1.56 0 0 0-1.46-1.71h-3.25v3.87h3a.9.9 0 0 0 .76-1v-.07h.3v2.93h-.3v-.09a.87.87 0 0 0-.76-1h-3zM146.64 11.5h-.3v3.6h.3a.6.6 0 0 1 .89-.47 3.56 3.56 0 0 0 3.91-.07 2.82 2.82 0 0 0 .85-3.51c-.61-1.18-2.24-2.09-3.5-2.76-1.46-.84-1.5-2.27-.39-3 1.35-.8 3.35.6 3.35 2.62h.26V4.49h-.26c-.09.51-.46.56-1 .33-1.43-.67-2.61-.64-3.61.29a2.74 2.74 0 0 0 .46 4.38 13.69 13.69 0 0 1 3.15 2.27 1.59 1.59 0 0 1-.37 2.36c-1.39 1.24-3.76-.27-3.76-2.62zM102.43 4.5h-2.65v.29a1.06 1.06 0 0 1 .93.31c.24.27.39.47.7.82v8.09a.83.83 0 0 1-.91.78h-.11v.31h2.89v-.31h-.06a.86.86 0 0 1-1-.78v-7l6.84 8.12h.22V5.61a.85.85 0 0 1 .93-.8h.07v-.29h-2.87v.29h.09a.83.83 0 0 1 .91.8v6l-6-7.14zM156.36 13.7a.92.92 0 0 0 1 1.11h.07v.29h-3.79v-.29h.11a.9.9 0 0 0 .93-1.11V5.9a.91.91 0 0 0-.93-1.11h-.11V4.5h3.74v.29h-.07a.93.93 0 0 0-1 1.11v7.8zM172.28 10.59l-3.17-5a1.23 1.23 0 0 0-1.09-.84v-.27h3.67v.31h-.24a.52.52 0 0 0-.39.78l2.61 4.07 2.37-4.14a.48.48 0 0 0-.33-.71h-.26v-.31h2.54v.31a1.46 1.46 0 0 0-1.17.8L174 10.53v3.2a.9.9 0 0 0 1 1.09h.07v.29h-3.78v-.29h.07a.92.92 0 0 0 1-1.13V10.6zM163.79 13.77a.87.87 0 0 0 1 1v.29h-3.69v-.29a.9.9 0 0 0 1-1V5.28h-2.09c-.78 0-1.24.56-1.3 1.71h-.24l.09-2.45a.1.1 0 0 1 .07-.07h8.56a.1.1 0 0 1 .07.07l.11 2.45h-.26c-.07-1.16-.48-1.71-1.28-1.71h-2.06v8.47zM64.94 33.38a.89.89 0 0 0 .93 1.09h.11v.27h-3.74v-.27h.07a.92.92 0 0 0 1-1.11v-7.78a.94.94 0 0 0-1-1.16h-.07v-.29h7.93l.17 2.45h-.24a1.58 1.58 0 0 0-1.46-1.71h-3.7v3.85h3a.85.85 0 0 0 .74-1v-.07h.28v2.93h-.28a.87.87 0 0 0-.74-1h-3v3.87zM102.79 29.51v3.91a.55.55 0 0 0 .56.56h2.59a2.46 2.46 0 0 0 2.43-2.09h.27l-.85 2.85h-7.71v-.27h.07a.92.92 0 0 0 1-1.11v-7.8a.93.93 0 0 0-1-1.13h-.07v-.29h7.45l.17 2.45h-.24a1.54 1.54 0 0 0-1.48-1.71h-3.22v3.85h3a.89.89 0 0 0 .76-1v-.07h.26v2.93h-.26a.91.91 0 0 0-.76-1h-3zM97.25 25.15a.68.68 0 0 0-.72-.73h-.28v-.29h2.82v.29h-.33a.65.65 0 0 0-.67.73v6.2c0 2-1.5 3.49-4 3.49s-4.11-1.56-4.11-3.69v-5.71a1 1 0 0 0-.91-1v-.29h3.63v.29h-.04a1 1 0 0 0-.89 1v5.78a2.58 2.58 0 0 0 2.5 2.82 2.77 2.77 0 0 0 3-2.69v-6.2zM111.91 29.51v3.91a.53.53 0 0 0 .52.56h2.61c1.43 0 2.06-.89 2.43-2.09h.3l-.89 2.85h-7.67v-.27a.93.93 0 0 0 1-1.11v-7.8a.94.94 0 0 0-1-1.13v-.29h7.43l.17 2.45h-.24a1.55 1.55 0 0 0-1.46-1.71h-3.22v3.85h3a.89.89 0 0 0 .8-1v-.07h.26v2.93h-.26a.91.91 0 0 0-.8-1h-3zM139.75 33.28a.65.65 0 0 0 .54.67h2.41c1.41 0 2.06-.91 2.43-2.13h.3l-.79 2.92h-7.54v-.29h.09a.93.93 0 0 0 .93-1.13v-7.74a1 1 0 0 0-.93-1.16h-.09v-.29h3.74v.29h-.07a1 1 0 0 0-1 1.16v7.7zM129.64 31.16h-.3v3.58h.3a.58.58 0 0 1 .89-.47 3.64 3.64 0 0 0 3.93 0 2.83 2.83 0 0 0 .85-3.51c-.61-1.2-2.28-2.09-3.5-2.78-1.48-.84-1.54-2.29-.39-3 1.3-.82 3.32.56 3.32 2.62h.3v-3.47h-.3c-.11.53-.46.6-1 .38a3 3 0 0 0-3.65.27 2.78 2.78 0 0 0 .5 4.4 13.07 13.07 0 0 1 3.15 2.27 1.63 1.63 0 0 1-.37 2.36c-1.39 1.22-3.78-.29-3.78-2.62zM120.39 24.13h-2.65v.29a1 1 0 0 1 .91.31c.26.29.43.47.74.85v8.07a.85.85 0 0 1-.93.8h-.09v.29h2.87v-.29h-.07a.84.84 0 0 1-.93-.8v-7l6.82 8.12h.22v-9.52a.85.85 0 0 1 .91-.8h.09v-.29h-2.85v.29h.06a.88.88 0 0 1 1 .8v6.03l-6.06-7.16zM158.85 24.13h-2.65v.29a1 1 0 0 1 .89.31c.26.29.43.47.74.85v8.07a.85.85 0 0 1-.93.8h-.07v.29h2.81v-.29a.85.85 0 0 1-1-.8v-7l6.82 8.12h.22v-9.52a.85.85 0 0 1 .91-.8h.11v-.29h-2.8v.29a.88.88 0 0 1 1 .8v6.03l-6-7.16z"/>
  <path class="b"
        d="M154.82 33.5a1.16 1.16 0 0 0 1 .91h.11v.29h-3.61v-.29h.28a.54.54 0 0 0 .5-.73l-1-2.36h-3.67l-1 2.36a.57.57 0 0 0 .59.73h.13v.29h-2.76v-.29h.2a1.31 1.31 0 0 0 1.06-1l3.82-9.47a.19.19 0 0 1 .35 0l4 9.48zm-6.15-3h3l-1.52-3.59-1.51 3.63zM177.99 29.44a5.26 5.26 0 0 1-5.35 5.31h-4.8v-.29h.09a.92.92 0 0 0 .93-1.13v-7.74a.94.94 0 0 0-.93-1.16h-.09v-.29h3.94c6.63-.21 6.21 5.29 6.21 5.29zm-7.24-4.54v9a3.31 3.31 0 0 0 1 .13c3.13 0 4.63-1.89 4.63-4.65 0-.12.18-4.81-4.66-4.69a1.57 1.57 0 0 0-1 .18zM55.01 21.02c3.81.06 6.21 3 6.21 6.83s-2.43 6.8-6.21 6.8-6.21-3.07-6.21-6.8c.33-7.13 6.21-6.83 6.21-6.83zm-3.89 6.83c0 3.57 1.61 6 3.89 6s3.89-2.19 3.89-6.1c-.08-5.14-2.66-5.84-3.89-5.9-2.87.15-3.9 3.1-3.89 6zM82 21.28s6.19 0 6.29 6.92a6.42 6.42 0 0 1-4.19 6.42 5.08 5.08 0 0 0 4.24 2.93v.36a10 10 0 0 1-7.54-3.07c-3.09-.6-5-3.4-5-6.74 0-3.76 2.41-6.8 6.2-6.83zm0 .82s-3.79-.18-3.84 6c0 3.94 1.72 6 3.89 6s3.87-2.07 3.87-6-1.81-6-3.92-6z"/>
</svg>
